CoaXCPH

Team FiCO Final Coalition 2k8 Presents:

Life.For.Sale.2011.DVDRip.XviD-FiCO
 
http://www.imdb.com/title/tt1715827
Subtitles: English
Date: 2012.04

Drama  Thriller

Stats
General
Format                                   : AVI
Format/Info                              : Audio Video Interleave
File size                                : 1.36 GiB
Duration                                 : 1h 41mn
Overall bit rate                         : 1 920 Kbps
Writing application                      : VirtualDubMod 1.5.10.2 (build 2540/release
Writing library                          : VirtualDubMod build 2540/release

Video
ID                                       : 0
Format                                   : MPEG-4 Visual
Format profile                           : Advanced SimpleL5
Format settings, BVOP                    : 2
Format settings, QPel                    : No
Format settings, GMC                     : No warppoints
Format settings, Matrix                  : Default (H.263
Muxing mode                              : Packed bitstream
Codec ID                                 : XVID
Codec ID/Hint                            : XviD
Duration                                 : 1h 41mn
Bit rate                                 : 1 459 Kbps
Width                                    : 640 pixels
Height                                   : 272 pixels
Display aspect ratio                     : 2.35:1
Frame rate                               : 25.000 fps
Color space                              : YUV
Chroma subsampling                       : 4:2:0
Bit depth                                : 8 bits
Scan type                                : Progressive
Compression mode                         : Lossy
Bits/(PixelFrame)                       : 0.335
Stream size                              : 1.04 GiB (76
Writing library                          : XviD 64

Audio
ID                                       : 1
Format                                   : AC-3
Format/Info                              : Audio Coding 3
Mode extension                           : CM (complete main
Codec ID                                 : 2000
Duration                                 : 1h 41mn
Bit rate mode                            : Constant
Bit rate                                 : 448 Kbps
Channel(s)                               : 6 channels
Channel positions                        : Front: L C R, Side: L R, LFE
Sampling rate                            : 48.0 KHz
Bit depth                                : 16 bits
Compression mode                         : Lossy
Stream size                              : 326 MiB (23
Alignment                                : Split accross interleaves
Interleave, duration                     : 40 ms (1.00 video frame
Interleave, preload duration             : 500 ms

Release notes
enjoy

Greetz from Team FiCO:

BLooDWeiSeR,CULTXviD,SiCK,DoNE,LAP,TH30R1STS

WinBeta, DvF, WASTE, BERC, KALEVALA, Jiggly

you know where to find us...

NFO By: CoaXCable/CoolPHat #CPH